<?xml version="1.0" encoding="UTF-8"?>
<svg id="aquarius" data-name="Layer 1" xmlns="http://www.w3.org/2000/svg" viewBox="0 0 48 48">
  <defs>
    <style>
      .cls-1, .cls-2 {
        fill: #f7f7f7;
      }

      .cls-2 {
        isolation: isolate;
        opacity: .3;
      }

      .cls-3 {
        fill: none;
        stroke: #f7f7f7;
        stroke-miterlimit: 10;
        stroke-width: 2px;
      }

      <!-- hover -->

      #aquarius:hover #flow .cls-3 {stroke: rgb(170, 255, 227);}

      #aquarius:hover #sparkle {fill: pink;}

      <script>

const iconSet = document.queryselector('#aquarius');

// function always go in the middle

function logMyId() {
  debugger;
  console.log(this.id);
}

// event handing at the bottom
iconSet.addEventListener('click', logMyId);

</script>

    </style>
  </defs>
  <path id="jar-fill" class="cls-2" d="m26.423,22.839c2.489,6.038-1.309,9.469-5.532,12-4.654,2.796-11.376,6.161-11.376,6.161l-3.758-3.757-3.757-3.758s3.365-6.722,6.158-11.376c2.534-4.223,5.965-8.021,12-5.532l1.878-5.636,10.02,10.02-5.633,1.878Z"/>
  <path id="jar-stroke" class="cls-3" d="m26.423,22.839c2.489,6.038-1.309,9.469-5.532,12-4.654,2.796-11.376,6.161-11.376,6.161l-3.758-3.757-3.757-3.758s3.365-6.722,6.158-11.376c2.534-4.223,5.965-8.021,12-5.532l1.878-5.636,10.02,10.02-5.633,1.878Z"/>
  <g id="flow">
    <path class="cls-3" d="m27,12c0-2.761,2.239-5,5-5s5,2.239,5,5v25c0,2.761,2.239,5,5,5s5-2.239,5-5-2.239-5-5-5"/>
    <path class="cls-3" d="m36,5c2.761,0,5,2.239,5,5v18"/>
    <path class="cls-3" d="m30,36c-1.657,0-3,1.343-3,3s1.343,3,3,3,3-1.343,3-3v-12"/>
  </g>
  <circle id="dot" class="cls-1" cx="7" cy="12" r="1"/>
  <path id="sparkle" class="cls-1" d="m13.719,5.328c-.688-.684-1.268-1.469-1.719-2.328-.451.859-1.031,1.644-1.719,2.328-.673.668-1.442,1.231-2.281,1.672,1.709.896,3.104,2.291,4,4,.896-1.709,2.291-3.104,4-4-.839-.441-1.608-1.004-2.281-1.672Z"/>
</svg>