<?xml version="1.0" encoding="UTF-8"?>
<svg id="aries" data-name="aries" xmlns="http://www.w3.org/2000/svg" viewBox="0 0 48 48">
  <defs>
    <style>
      .cls-1, .cls-2 {
        fill: #f7f7f7;
      }

      .cls-2 {
        isolation: isolate;
        opacity: .3;
      }

      .cls-3 {
        fill: none;
        stroke: #f7f7f7;
        stroke-miterlimit: 10;
        stroke-width: 2px;
      }
    </style>
  </defs>
  <g id="horn-fill_-L" data-name="horn-fill=-L">
    <path id="L" class="cls-2" d="m2.444,17.9c-.135,1.362-.199,2.731-.194,4.1,0,11.984,3.34,17.148,5.626,17.813,1.791.52,3.748-.521,5.457-2.73-4.333.25-6.5-3.333-6.818-8.57-.164-2.839-.086-5.687.235-8.513-1.658-.096-3.209-.853-4.306-2.1Z"/>
    <path class="cls-2" d="m15,14c-3.208-4.375-8.5-4.25-12,0h12Z"/>
  </g>
  <g id="horn-fill-R">
    <path class="cls-2" d="m45.556,17.9c.135,1.362.199,2.731.194,4.1,0,11.984-3.34,17.148-5.626,17.813-1.791.52-3.748-.521-5.457-2.73,4.333.25,6.5-3.333,6.818-8.57.164-2.839.086-5.687-.235-8.513,1.658-.096,3.209-.853,4.306-2.1Z"/>
    <path class="cls-2" d="m33,14c3.208-4.375,8.5-4.25,12,0h-12Z"/>
  </g>
  <circle id="eye-L" class="cls-1" cx="18" cy="28" r="2"/>
  <circle id="eye-R" class="cls-1" cx="30" cy="28" r="2"/>
  <path id="ear-L" class="cls-3" d="m11,20h-4c-3.314,0-6-2.686-6-6h14"/>
  <path id="ear-R" class="cls-3" d="m37,20h4c3.314,0,6-2.686,6-6h-14"/>
  <path id="face" class="cls-3" d="m15,14l-2.6,12.145c-.252,1.174.037,2.399.787,3.337l2.813,3.518,2.824,9.177c.879,2.859,3.908,4.464,6.767,3.585,1.715-.527,3.058-1.87,3.585-3.585l2.824-9.177,2.815-3.518c.75-.938,1.039-2.163.787-3.337l-2.602-12.145c-5.926-1.333-12.074-1.333-18,0Z"/>
  <path id="nose" class="cls-3" d="m27,38.677c-.431,1.657-2.124,2.65-3.781,2.219-1.087-.283-1.936-1.132-2.219-2.219"/>
  <path id="philtrum" class="cls-3" d="m24,41v5"/>
  <g id="horn-stroke-L">
    <path class="cls-3" d="m2.444,17.9c-.135,1.362-.199,2.731-.194,4.1,0,11.984,3.34,17.148,5.626,17.813,1.791.52,3.748-.521,5.457-2.73-4.333.25-6.5-3.333-6.818-8.57-.136-2.085-.13-4.177.018-6.261"/>
    <path class="cls-3" d="m24,13c-1.6-5.946-5.137-11-12-11-3.786,0-7.412,4.629-8.964,12"/>
    <path class="cls-3" d="m15,14c-3.208-4.375-8.5-4.25-12,0"/>
  </g>
  <g id="horn-stroke-R">
    <path class="cls-3" d="m45.556,17.9c.135,1.362.199,2.731.194,4.1,0,11.984-3.34,17.148-5.626,17.813-1.791.52-3.748-.521-5.457-2.73,4.333.25,6.5-3.333,6.818-8.57.136-2.085.13-4.177-.018-6.261"/>
    <path class="cls-3" d="m24,13c1.605-5.946,5.137-11,12-11,3.786,0,7.412,4.629,8.964,12"/>
    <path class="cls-3" d="m33,14c3.208-4.375,8.5-4.25,12,0"/>
  </g>
</svg>