<?xml version="1.0" encoding="UTF-8"?>
<svg id="Layer_1" data-name="Layer 1" xmlns="http://www.w3.org/2000/svg" viewBox="0 0 48 48">
  <defs>
    <style>
      .cls-1, .cls-2 {
        fill: #f7f7f7;
      }

      .cls-2 {
        isolation: isolate;
        opacity: .3;
      }

      .cls-3, .cls-4 {
        fill: none;
        stroke: #f7f7f7;
        stroke-miterlimit: 10;
        stroke-width: 2px;
      }

      .cls-4 {
        stroke-linecap: square;
      }
    </style>
  </defs>
  <g id="claws-fill">
    <path class="cls-2" d="m9.331,12c-1.081-4-.331-6.688,2.74-9.387C7.983.908,3.287,2.841,1.582,6.929c-1.705,4.088.228,8.784,4.316,10.489,4.088,1.705,8.784-.228,10.489-4.316.742-1.781.818-3.77.213-5.602-1.802,2.326-4.383,3.924-7.269,4.5Z"/>
    <path class="cls-2" d="m38.669,12c1.081-4,.331-6.687-2.74-9.387,4.088-1.705,8.784.228,10.489,4.316,1.705,4.088-.228,8.784-4.316,10.489-4.088,1.705-8.784-.228-10.489-4.316-.742-1.781-.818-3.77-.213-5.602,1.802,2.326,4.383,3.924,7.269,4.5Z"/>
  </g>
  <circle id="eye-L" class="cls-1" cx="17" cy="22" r="2"/>
  <circle id="eye-R" class="cls-1" cx="31" cy="22" r="2"/>
  <path id="body" class="cls-4" d="m24,26c-7.236,0-13.414,3.192-15.867,7.69-.503.972-.122,2.168.85,2.671.042.022.085.042.129.061l14.08,6.221c.515.227,1.101.227,1.616,0l14.08-6.221c1.006-.432,1.472-1.597,1.04-2.603-.019-.044-.039-.087-.061-.129-2.453-4.498-8.631-7.69-15.867-7.69Z"/>
  <g id="legs">
    <path class="cls-3" d="m16,46c-.003-2.069.799-4.058,2.236-5.547"/>
    <path class="cls-3" d="m10,46c-.005-2.884.886-5.698,2.548-8.055"/>
    <path class="cls-3" d="m32,46c.003-2.069-.799-4.058-2.236-5.547"/>
    <path class="cls-3" d="m38,46c.005-2.884-.886-5.698-2.548-8.055"/>
  </g>
  <g id="claws-stroke">
    <path class="cls-4" d="m9.331,12c-1.081-4-.331-6.688,2.74-9.387C7.983.908,3.287,2.841,1.582,6.929c-1.705,4.088.228,8.784,4.316,10.489,4.088,1.705,8.784-.228,10.489-4.316.742-1.781.818-3.77.213-5.602-1.802,2.326-4.383,3.924-7.269,4.5Z"/>
    <path class="cls-3" d="m5,17s-2,8,5,10"/>
    <path class="cls-4" d="m38.669,12c1.081-4,.331-6.687-2.74-9.387,4.088-1.705,8.784.228,10.489,4.316,1.705,4.088-.228,8.784-4.316,10.489-4.088,1.705-8.784-.228-10.489-4.316-.742-1.781-.818-3.77-.213-5.602,1.802,2.326,4.383,3.924,7.269,4.5Z"/>
    <path class="cls-3" d="m43,17s2,8-5,10"/>
  </g>
</svg>