<?xml version="1.0" encoding="UTF-8"?>
<svg id="Layer_1" data-name="Layer 1" xmlns="http://www.w3.org/2000/svg" viewBox="0 0 48 48">
  <defs>
    <style>
      .cls-1, .cls-2 {
        fill: #f7f7f7;
      }

      .cls-2 {
        isolation: isolate;
        opacity: .3;
      }

      .cls-3 {
        fill: none;
        stroke: #f7f7f7;
        stroke-miterlimit: 10;
        stroke-width: 2px;
      }
    </style>
  </defs>
  <g id="corn-fill">
    <path class="cls-2" d="m23,17C22,11,19,1,9,1,4,1,3,3,3,3c12,1,11,15,11,15"/>
    <path class="cls-2" d="m25,17c1-6,4-16,14-16,5,0,6,2,6,2-12,1-11,15-11,15"/>
  </g>
  <circle id="eye-L" class="cls-1" cx="18" cy="29" r="2"/>
  <circle id="eye-R" class="cls-1" cx="30" cy="29" r="2"/>
  <path id="face" class="cls-3" d="m13,19v10.343c0,1.061.422,2.079,1.172,2.829l2.828,2.828,2.03,8.119c.57,2.281,2.619,3.881,4.97,3.881,2.351,0,4.4-1.6,4.97-3.881l2.03-8.119,2.828-2.828c.75-.75,1.172-1.768,1.172-2.829v-10.343c-7.091-2.667-14.909-2.667-22,0Z"/>
  <path id="nose" class="cls-3" d="m27,39.677c-.431,1.657-2.124,2.65-3.781,2.219-1.087-.283-1.936-1.132-2.219-2.219"/>
  <path id="philtrum" class="cls-3" d="m24,42v5"/>
  <path id="ear-L" class="cls-3" d="m10,21.8c-4.657-.951-8.001-5.047-8-9.8h6c2.761,0,5,2.239,5,5v5"/>
  <path id="ear-R" class="cls-3" d="m38,21.8c4.657-.951,8.001-5.047,8-9.8h-6c-2.761,0-5,2.239-5,5h0v5"/>
  <path id="horn-L" class="cls-3" d="m23,17C22,11,19,1,9,1,4,1,3,3,3,3c12,1,11,15,11,15"/>
  <path id="corn-R" class="cls-3" d="m25,17c1-6,4-16,14-16,5,0,6,2,6,2-12,1-11,15-11,15"/>
</svg>