<?xml version="1.0" encoding="UTF-8"?>
<svg id="Layer_1" data-name="Layer 1" xmlns="http://www.w3.org/2000/svg" viewBox="0 0 48 48">
  <defs>
    <style>
      .cls-1, .cls-2, .cls-3 {
        fill: #f7f7f7;
      }

      .cls-2 {
        isolation: isolate;
        opacity: .3;
      }

      .cls-3, .cls-4 {
        stroke: #f7f7f7;
        stroke-miterlimit: 10;
        stroke-width: 2px;
      }

      .cls-4 {
        fill: none;
      }
    </style>
  </defs>
  <path id="mane-fill" class="cls-2" d="m42.667,13.583c1.046.185,2.024.646,2.833,1.334-.333-5.667-5.458-5-8.5-10,0,0,1.5.125,2-1.917C36.667,3.013,34,0,29,2c-1.577-.684-3.281-1.025-5-1-1.719-.025-3.423.316-5,1C14,0,11.333,3.013,9,3c.5,2.042,2,1.917,2,1.917C7.958,9.917,2.833,9.25,2.5,14.917c.809-.688,1.787-1.149,2.833-1.334-8.75,18.417,3.248,28.584,3.248,28.584.09-1.413.342-2.811.752-4.167,2.834,8.5,11.084,5.5,14.667,8.833,3.583-3.333,11.833-.333,14.667-8.833.41,1.356.662,2.754.752,4.167,0,0,11.998-10.167,3.248-28.584Zm-4.179,10.534l-3.94,5.571h-.013c.817,1.217,1.057,2.731.657,4.141l-.363,1.27c-.491,1.717-2.06,2.901-3.846,2.901h-.983v1c0,1.657-1.343,3-3,3h-6c-1.657,0-3-1.343-3-3v-1h-.983c-1.786,0-3.355-1.183-3.846-2.9l-.363-1.27c-.4-1.41-.16-2.924.657-4.141h-.012l-3.941-5.572c-.948-1.327-1.189-3.032-.646-4.57l2.744-7.776c1.165-3.301,4.786-5.033,8.088-3.868.248.087.49.19.724.308,2.252,1.126,4.904,1.126,7.156,0,3.131-1.565,6.939-.296,8.504,2.836.117.235.22.477.308.724l2.744,7.776c.543,1.538.302,3.243-.646,4.57Z"/>
  <path id="glabella-L" class="cls-4" d="m19,30l2-8"/>
  <path id="eye-L" class="cls-1" d="m21,23h-2.037c-1.203,0-2.302-.68-2.841-1.755l-1.122-2.245h4.72c1.259,0,2.28,1.021,2.28,2.28h0v.72c0,.552-.448,1-1,1Z"/>
  <path id="glabella-R" class="cls-4" d="m29,30l-2-8"/>
  <path id="eye-R" class="cls-1" d="m27,23h2.037c1.203,0,2.302-.68,2.841-1.755l1.122-2.245h-4.72c-1.259,0-2.28,1.021-2.28,2.28h0v.72c0,.552.448,1,1,1Z"/>
  <path id="nose" class="cls-3" d="m19.425,29h9.15c.276,0,.5.225.499.501,0,.151-.069.294-.187.389l-3.613,2.891c-.177.142-.398.219-.625.219h-1.3c-.227,0-.448-.077-.625-.219l-3.611-2.891c-.215-.173-.25-.487-.077-.703.095-.118.238-.187.389-.187Z"/>
  <path id="chin" class="cls-4" d="m30,38v1c0,1.657-1.343,3-3,3h-6c-1.657,0-3-1.343-3-3v-1"/>
  <path id="philtrum" class="cls-4" d="m24,35v-2"/>
  <g id="face">
    <path class="cls-4" d="m24,33v1c0,2.209-1.791,4-4,4h-2.983c-1.786,0-3.355-1.183-3.846-2.9l-.363-1.27c-.499-1.746-.012-3.626,1.272-4.91l1.92-1.92"/>
    <path class="cls-4" d="m24,33v1c0,2.209,1.791,4,4,4h2.983c1.786,0,3.355-1.183,3.846-2.9l.363-1.27c.499-1.746.012-3.626-1.272-4.91l-1.92-1.92"/>
    <path class="cls-4" d="m34.548,29.688l3.94-5.571c.948-1.327,1.189-3.032.646-4.57l-2.744-7.776c-1.165-3.301-4.786-5.033-8.088-3.868-.248.087-.49.19-.724.308-2.252,1.126-4.904,1.126-7.156,0-3.131-1.565-6.939-.296-8.504,2.836-.117.235-.22.477-.308.724l-2.744,7.776c-.543,1.538-.302,3.243.646,4.57l3.941,5.571"/>
  </g>
  <path id="mane-stroke" class="cls-4" d="m24,46.833c3.583-3.333,11.833-.333,14.667-8.833.41,1.356.662,2.754.752,4.167,0,0,12-10.167,3.248-28.584,1.046.185,2.024.646,2.833,1.334-.333-5.667-5.458-5-8.5-10,0,0,1.5.125,2-1.917C36.667,3.013,34,0,29,2c-1.577-.684-3.281-1.025-5-1-1.719-.025-3.423.316-5,1C14,0,11.333,3.013,9,3c.5,2.042,2,1.917,2,1.917C7.958,9.917,2.833,9.25,2.5,14.917c.809-.688,1.787-1.149,2.833-1.334-8.75,18.417,3.248,28.584,3.248,28.584.09-1.413.342-2.811.752-4.167,2.834,8.5,11.084,5.5,14.667,8.833Z"/>
</svg>