<?xml version="1.0" encoding="UTF-8"?>
<svg id="Layer_1" data-name="Layer 1" xmlns="http://www.w3.org/2000/svg" viewBox="0 0 48 48">
  <defs>
    <style>
      .cls-1 {
        fill: #f7f7f7;
        isolation: isolate;
        opacity: .3;
      }

      .cls-2, .cls-3 {
        fill: none;
        stroke: #f7f7f7;
        stroke-miterlimit: 10;
        stroke-width: 2px;
      }

      .cls-3 {
        stroke-linecap: square;
      }
    </style>
  </defs>
  <g id="balances-fill">
    <path class="cls-1" d="m9,32c4.418,0,8-3.582,8-8H1c0,4.418,3.582,8,8,8Z"/>
    <path class="cls-1" d="m39,32c-4.418,0-8-3.582-8-8h16c0,4.418-3.582,8-8,8Z"/>
  </g>
  <g id="STROKE">
    <path class="cls-3" d="m24,10v24"/>
    <circle class="cls-3" cx="24" cy="7" r="3"/>
    <path class="cls-3" d="m17,24c0,4.418-3.582,8-8,8S1,28.418,1,24l8-10,8,10Z"/>
    <path class="cls-2" d="m1,24h16"/>
    <path class="cls-2" d="m24,38c3.314,0,6,2.686,6,6h-12c0-3.314,2.686-6,6-6Z"/>
    <path class="cls-3" d="m21.058,7.588l-9.316,1.864c-1.738.347-3.541-.092-4.925-1.2l-2.817-2.252"/>
    <path class="cls-3" d="m31,24c0,4.418,3.582,8,8,8s8-3.582,8-8l-8-10-8,10Z"/>
    <path class="cls-2" d="m47,24h-16"/>
    <path class="cls-3" d="m26.942,7.588l9.316,1.864c1.738.347,3.541-.092,4.925-1.2l2.817-2.252"/>
  </g>
</svg>