<?xml version="1.0" encoding="UTF-8"?><svg id="Layer_2" xmlns="http://www.w3.org/2000/svg" xmlns:xlink="http://www.w3.org/1999/xlink" viewBox="0 0 115.555 109.884"><defs><radialGradient id="radial-gradient" cx="53.581" cy="43.846" fx="14.792" fy="61.978" r="43.846" gradientUnits="userSpaceOnUse"><stop offset="0" stop-color="#fff"/><stop offset=".157" stop-color="#fbfbfb"/><stop offset=".293" stop-color="#f1f0f1"/><stop offset=".422" stop-color="#dfdfdf"/><stop offset=".546" stop-color="#c6c5c6"/><stop offset=".666" stop-color="#a7a5a5"/><stop offset=".784" stop-color="#807d7e"/><stop offset=".897" stop-color="#524f50"/><stop offset="1" stop-color="#231f20"/></radialGradient><clipPath id="clippath"><circle cx="53.581" cy="43.846" r="43.846" fill="url(#radial-gradient)"/></clipPath></defs><g id="Logo-SVG"><g><g><circle cx="53.581" cy="43.846" r="43.846" fill="url(#radial-gradient)"/><g clip-path="url(#clippath)"><rect x="9.735" y="0" width=".344" height="87.692" fill="#fff"/><rect x="10.079" y="0" width=".344" height="87.692" fill="#fdfdfd"/><rect x="10.423" y="0" width=".344" height="87.692" fill="#fcfcfc"/><rect x="10.767" y="0" width=".344" height="87.692" fill="#fafbfb"/><rect x="11.111" y="0" width=".344" height="87.692" fill="#f9f9fa"/><rect x="11.454" y="0" width=".344" height="87.692" fill="#f8f8f9"/><rect x="11.798" y="0" width=".344" height="87.692" fill="#f7f7f8"/><rect x="12.142" y="0" width=".344" height="87.692" fill="#f6f6f7"/><rect x="12.486" y="0" width=".344" height="87.692" fill="#f5f6f6"/><rect x="12.83" y="0" width=".344" height="87.692" fill="#f4f5f5"/><rect x="13.174" y="0" width=".344" height="87.692" fill="#f3f4f4"/><rect x="13.518" y="0" width=".344" height="87.692" fill="#f3f3f3"/><rect x="13.862" y="0" width=".344" height="87.692" fill="#f2f2f3"/><rect x="14.206" y="0" width=".344" height="87.692" fill="#f1f1f2"/><rect x="14.549" y="0" width=".344" height="87.692" fill="#f0f0f1"/><rect x="14.893" y="0" width=".344" height="87.692" fill="#eff0f0"/><rect x="15.237" y="0" width=".344" height="87.692" fill="#eeeff0"/><rect x="15.581" y="0" width=".344" height="87.692" fill="#edeeef"/><rect x="15.925" y="0" width=".344" height="87.692" fill="#ededee"/><rect x="16.269" y="0" width=".344" height="87.692" fill="#ececed"/><rect x="16.613" y="0" width=".344" height="87.692" fill="#ebecec"/><rect x="16.957" y="0" width=".344" height="87.692" fill="#eaebec"/><rect x="17.301" y="0" width=".344" height="87.692" fill="#e9eaeb"/><rect x="17.645" y="0" width=".344" height="87.692" fill="#e8e9ea"/><rect x="17.988" y="0" width=".344" height="87.692" fill="#e8e8e9"/><rect x="18.332" y="0" width=".344" height="87.692" fill="#e7e7e8"/><rect x="18.676" y="0" width=".344" height="87.692" fill="#e6e7e8"/><rect x="19.02" y="0" width=".344" height="87.692" fill="#e5e6e7"/><rect x="19.364" y="0" width=".344" height="87.692" fill="#e4e5e6"/><rect x="19.708" y="0" width=".344" height="87.692" fill="#e3e4e5"/><rect x="20.052" y="0" width=".344" height="87.692" fill="#e2e3e5"/><rect x="20.396" y="0" width=".344" height="87.692" fill="#e2e3e4"/><rect x="20.74" y="0" width=".344" height="87.692" fill="#e1e2e3"/><rect x="21.083" y="0" width=".344" height="87.692" fill="#e0e1e2"/><rect x="21.427" y="0" width=".344" height="87.692" fill="#dfe0e1"/><rect x="21.771" y="0" width=".344" height="87.692" fill="#dedfe1"/><rect x="22.115" y="0" width=".344" height="87.692" fill="#dddfe0"/><rect x="22.459" y="0" width=".344" height="87.692" fill="#dddedf"/><rect x="22.803" y="0" width=".344" height="87.692" fill="#dcddde"/><rect x="23.147" y="0" width=".344" height="87.692" fill="#dbdcde"/><rect x="23.491" y="0" width=".344" height="87.692" fill="#dadbdd"/><rect x="23.835" y="0" width=".344" height="87.692" fill="#d9dbdc"/><rect x="24.178" y="0" width=".344" height="87.692" fill="#d9dadb"/><rect x="24.522" y="0" width=".344" height="87.692" fill="#d8d9da"/><rect x="24.866" y="0" width=".344" height="87.692" fill="#d7d8da"/><rect x="25.21" y="0" width=".344" height="87.692" fill="#d6d7d9"/><rect x="25.554" y="0" width=".344" height="87.692" fill="#d5d7d8"/><rect x="25.898" y="0" width=".344" height="87.692" fill="#d4d6d7"/><rect x="26.242" y="0" width=".344" height="87.692" fill="#d4d5d6"/><rect x="26.586" y="0" width=".344" height="87.692" fill="#d3d4d6"/><rect x="26.93" y="0" width=".344" height="87.692" fill="#d2d3d5"/><rect x="27.273" y="0" width=".344" height="87.692" fill="#d1d2d4"/><rect x="27.617" y="0" width=".344" height="87.692" fill="#d0d2d3"/><rect x="27.961" y="0" width=".344" height="87.692" fill="#cfd1d3"/><rect x="28.305" y="0" width=".344" height="87.692" fill="#cfd0d2"/><rect x="28.649" y="0" width=".344" height="87.692" fill="#cecfd1"/><rect x="28.993" y="0" width=".344" height="87.692" fill="#cdced0"/><rect x="29.337" y="0" width=".344" height="87.692" fill="#cccecf"/><rect x="29.681" y="0" width=".344" height="87.692" fill="#cbcdcf"/><rect x="30.025" y="0" width=".344" height="87.692" fill="#caccce"/><rect x="30.368" y="0" width=".344" height="87.692" fill="#c9cbcd"/><rect x="30.712" y="0" width=".344" height="87.692" fill="#c9cacc"/><rect x="31.056" y="0" width=".344" height="87.692" fill="#c8cacb"/><rect x="31.4" y="0" width=".344" height="87.692" fill="#c7c9cb"/><rect x="31.744" y="0" width=".344" height="87.692" fill="#c6c8ca"/><rect x="32.088" y="0" width=".344" height="87.692" fill="#c5c7c9"/><rect x="32.432" y="0" width=".344" height="87.692" fill="#c4c6c8"/><rect x="32.776" y="0" width=".344" height="87.692" fill="#c4c5c7"/><rect x="33.12" y="0" width=".344" height="87.692" fill="#c3c5c7"/><rect x="33.463" y="0" width=".344" height="87.692" fill="#c2c4c6"/><rect x="33.807" y="0" width=".344" height="87.692" fill="#c1c3c5"/><rect x="34.151" y="0" width=".344" height="87.692" fill="#c0c2c4"/><rect x="34.495" y="0" width=".344" height="87.692" fill="#bfc1c3"/><rect x="34.839" y="0" width=".344" height="87.692" fill="#bfc0c3"/><rect x="35.183" y="0" width=".344" height="87.692" fill="#bec0c2"/><rect x="35.527" y="0" width=".344" height="87.692" fill="#bdbfc1"/><rect x="35.871" y="0" width=".344" height="87.692" fill="#bcbec0"/><rect x="36.215" y="0" width=".344" height="87.692" fill="#bbbdbf"/><rect x="36.559" y="0" width=".344" height="87.692" fill="#babcbf"/><rect x="36.902" y="0" width=".344" height="87.692" fill="#babcbe"/><rect x="37.246" y="0" width=".344" height="87.692" fill="#b9bbbd"/><rect x="37.59" y="0" width=".344" height="87.692" fill="#b8babc"/><rect x="37.934" y="0" width=".344" height="87.692" fill="#b7b9bb"/><rect x="38.278" y="0" width=".344" height="87.692" fill="#b6b8bb"/><rect x="38.622" y="0" width=".344" height="87.692" fill="#b5b7ba"/><rect x="38.966" y="0" width=".344" height="87.692" fill="#b5b7b9"/><rect x="39.31" y="0" width=".344" height="87.692" fill="#b4b6b8"/><rect x="39.654" y="0" width=".344" height="87.692" fill="#b3b5b7"/><rect x="39.997" y="0" width=".344" height="87.692" fill="#b2b4b7"/><rect x="40.341" y="0" width=".344" height="87.692" fill="#b1b3b6"/><rect x="40.685" y="0" width=".344" height="87.692" fill="#b0b3b5"/><rect x="41.029" y="0" width=".344" height="87.692" fill="#b0b2b4"/><rect x="41.373" y="0" width=".344" height="87.692" fill="#afb1b3"/><rect x="41.717" y="0" width=".344" height="87.692" fill="#aeb0b3"/><rect x="42.061" y="0" width=".344" height="87.692" fill="#adafb2"/><rect x="42.405" y="0" width=".344" height="87.692" fill="#acaeb1"/><rect x="42.749" y="0" width=".344" height="87.692" fill="#acaeb0"/><rect x="43.092" y="0" width=".344" height="87.692" fill="#abadaf"/><rect x="43.436" y="0" width=".344" height="87.692" fill="#aaacaf"/><rect x="43.78" y="0" width=".344" height="87.692" fill="#a9abae"/><rect x="44.124" y="0" width=".344" height="87.692" fill="#a8aaad"/><rect x="44.468" y="0" width=".344" height="87.692" fill="#a8aaac"/><rect x="44.812" y="0" width=".344" height="87.692" fill="#a7a9ab"/><rect x="45.156" y="0" width=".344" height="87.692" fill="#a6a8ab"/><rect x="45.5" y="0" width=".344" height="87.692" fill="#a5a7aa"/><rect x="45.844" y="0" width=".344" height="87.692" fill="#a4a6a9"/><rect x="46.187" y="0" width=".344" height="87.692" fill="#a4a6a8"/><rect x="46.531" y="0" width=".344" height="87.692" fill="#a3a5a7"/><rect x="46.875" y="0" width=".344" height="87.692" fill="#a2a4a7"/><rect x="47.219" y="0" width=".344" height="87.692" fill="#a1a3a6"/><rect x="47.563" y="0" width=".344" height="87.692" fill="#a0a3a5"/><rect x="47.907" y="0" width=".344" height="87.692" fill="#a0a2a4"/><rect x="48.251" y="0" width=".344" height="87.692" fill="#9fa1a4"/><rect x="48.595" y="0" width=".344" height="87.692" fill="#9ea0a3"/><rect x="48.939" y="0" width=".344" height="87.692" fill="#9d9fa2"/><rect x="49.282" y="0" width=".344" height="87.692" fill="#9c9fa1"/><rect x="49.626" y="0" width=".344" height="87.692" fill="#9c9ea0"/><rect x="49.97" y="0" width=".344" height="87.692" fill="#9b9da0"/><rect x="50.314" y="0" width=".344" height="87.692" fill="#9a9c9f"/><rect x="50.658" y="0" width=".344" height="87.692" fill="#999b9e"/><rect x="51.002" y="0" width=".344" height="87.692" fill="#999b9d"/><rect x="51.346" y="0" width=".344" height="87.692" fill="#989a9d"/><rect x="51.69" y="0" width=".344" height="87.692" fill="#97999c"/><rect x="52.034" y="0" width=".344" height="87.692" fill="#96989b"/><rect x="52.377" y="0" width=".344" height="87.692" fill="#96989a"/><rect x="52.721" y="0" width=".344" height="87.692" fill="#959799"/><rect x="53.065" y="0" width=".344" height="87.692" fill="#949699"/><rect x="53.409" y="0" width=".344" height="87.692" fill="#939598"/><rect x="53.753" y="0" width=".344" height="87.692" fill="#929597"/><rect x="54.097" y="0" width=".344" height="87.692" fill="#929496"/><rect x="54.441" y="0" width=".344" height="87.692" fill="#919396"/><rect x="54.785" y="0" width=".344" height="87.692" fill="#909295"/><rect x="55.129" y="0" width=".344" height="87.692" fill="#8f9194"/><rect x="55.473" y="0" width=".344" height="87.692" fill="#8f9193"/><rect x="55.816" y="0" width=".344" height="87.692" fill="#8e9093"/><rect x="56.16" y="0" width=".344" height="87.692" fill="#8d8f92"/><rect x="56.504" y="0" width=".344" height="87.692" fill="#8c8e91"/><rect x="56.848" y="0" width=".344" height="87.692" fill="#8c8e90"/><rect x="57.192" y="0" width=".344" height="87.692" fill="#8b8d90"/><rect x="57.536" y="0" width=".344" height="87.692" fill="#8a8c8f"/><rect x="57.88" y="0" width=".344" height="87.692" fill="#898b8e"/><rect x="58.224" y="0" width=".344" height="87.692" fill="#898b8d"/><rect x="58.568" y="0" width=".344" height="87.692" fill="#888a8d"/><rect x="58.911" y="0" width=".344" height="87.692" fill="#87898c"/><rect x="59.255" y="0" width=".344" height="87.692" fill="#86888b"/><rect x="59.599" y="0" width=".344" height="87.692" fill="#86888a"/><rect x="59.943" y="0" width=".344" height="87.692" fill="#85878a"/><rect x="60.287" y="0" width=".344" height="87.692" fill="#848689"/><rect x="60.631" y="0" width=".344" height="87.692" fill="#848588"/><rect x="60.975" y="0" width=".344" height="87.692" fill="#838587"/><rect x="61.319" y="0" width=".344" height="87.692" fill="#828486"/><rect x="61.663" y="0" width=".344" height="87.692" fill="#818386"/><rect x="62.006" y="0" width=".344" height="87.692" fill="#818285"/><rect x="62.35" y="0" width=".344" height="87.692" fill="#808284"/><rect x="62.694" y="0" width=".344" height="87.692" fill="#7f8183"/><rect x="63.038" y="0" width=".344" height="87.692" fill="#7e8083"/><rect x="63.382" y="0" width=".344" height="87.692" fill="#7e7f82"/><rect x="63.726" y="0" width=".344" height="87.692" fill="#7d7f81"/><rect x="64.07" y="0" width=".344" height="87.692" fill="#7c7e80"/><rect x="64.414" y="0" width=".344" height="87.692" fill="#7b7d80"/><rect x="64.758" y="0" width=".344" height="87.692" fill="#7b7c7f"/><rect x="65.101" y="0" width=".344" height="87.692" fill="#7a7c7e"/><rect x="65.445" y="0" width=".344" height="87.692" fill="#797b7d"/><rect x="65.789" y="0" width=".344" height="87.692" fill="#787a7d"/><rect x="66.133" y="0" width=".344" height="87.692" fill="#78797c"/><rect x="66.477" y="0" width=".344" height="87.692" fill="#77797b"/><rect x="66.821" y="0" width=".344" height="87.692" fill="#76787a"/><rect x="67.165" y="0" width=".344" height="87.692" fill="#75777a"/><rect x="67.509" y="0" width=".344" height="87.692" fill="#757679"/><rect x="67.853" y="0" width=".344" height="87.692" fill="#747578"/><rect x="68.196" y="0" width=".344" height="87.692" fill="#737577"/><rect x="68.54" y="0" width=".344" height="87.692" fill="#727476"/><rect x="68.884" y="0" width=".344" height="87.692" fill="#727376"/><rect x="69.228" y="0" width=".344" height="87.692" fill="#717275"/><rect x="69.572" y="0" width=".344" height="87.692" fill="#707274"/><rect x="69.916" y="0" width=".344" height="87.692" fill="#6f7173"/><rect x="70.26" y="0" width=".344" height="87.692" fill="#6e7072"/><rect x="70.604" y="0" width=".344" height="87.692" fill="#6e6f72"/><rect x="70.948" y="0" width=".344" height="87.692" fill="#6d6e71"/><rect x="71.291" y="0" width=".344" height="87.692" fill="#6c6e70"/><rect x="71.635" y="0" width=".344" height="87.692" fill="#6b6d6f"/><rect x="71.979" y="0" width=".344" height="87.692" fill="#6b6c6e"/><rect x="72.323" y="0" width=".344" height="87.692" fill="#6a6b6d"/><rect x="72.667" y="0" width=".344" height="87.692" fill="#696a6d"/><rect x="73.011" y="0" width=".344" height="87.692" fill="#68696c"/><rect x="73.355" y="0" width=".344" height="87.692" fill="#67696b"/><rect x="73.699" y="0" width=".344" height="87.692" fill="#67686a"/><rect x="74.043" y="0" width=".344" height="87.692" fill="#666769"/><rect x="74.387" y="0" width=".344" height="87.692" fill="#656668"/><rect x="74.73" y="0" width=".344" height="87.692" fill="#646568"/><rect x="75.074" y="0" width=".344" height="87.692" fill="#636467"/><rect x="75.418" y="0" width=".344" height="87.692" fill="#626466"/><rect x="75.762" y="0" width=".344" height="87.692" fill="#626365"/><rect x="76.106" y="0" width=".344" height="87.692" fill="#616264"/><rect x="76.45" y="0" width=".344" height="87.692" fill="#606163"/><rect x="76.794" y="0" width=".344" height="87.692" fill="#5f6062"/><rect x="77.138" y="0" width=".344" height="87.692" fill="#5e5f62"/><rect x="77.482" y="0" width=".344" height="87.692" fill="#5d5e61"/><rect x="77.825" y="0" width=".344" height="87.692" fill="#5d5e60"/><rect x="78.169" y="0" width=".344" height="87.692" fill="#5c5d5f"/><rect x="78.513" y="0" width=".344" height="87.692" fill="#5b5c5e"/><rect x="78.857" y="0" width=".344" height="87.692" fill="#5a5b5d"/><rect x="79.201" y="0" width=".344" height="87.692" fill="#595a5c"/><rect x="79.545" y="0" width=".344" height="87.692" fill="#58595b"/><rect x="79.889" y="0" width=".344" height="87.692" fill="#57585a"/><rect x="80.233" y="0" width=".344" height="87.692" fill="#575759"/><rect x="80.577" y="0" width=".344" height="87.692" fill="#565658"/><rect x="80.92" y="0" width=".344" height="87.692" fill="#555558"/><rect x="81.264" y="0" width=".344" height="87.692" fill="#545457"/><rect x="81.608" y="0" width=".344" height="87.692" fill="#535456"/><rect x="81.952" y="0" width=".344" height="87.692" fill="#525355"/><rect x="82.296" y="0" width=".344" height="87.692" fill="#515254"/><rect x="82.64" y="0" width=".344" height="87.692" fill="#505153"/><rect x="82.984" y="0" width=".344" height="87.692" fill="#4f5052"/><rect x="83.328" y="0" width=".344" height="87.692" fill="#4f4f51"/><rect x="83.672" y="0" width=".344" height="87.692" fill="#4e4e50"/><rect x="84.015" y="0" width=".344" height="87.692" fill="#4d4d4f"/><rect x="84.359" y="0" width=".344" height="87.692" fill="#4c4c4e"/><rect x="84.703" y="0" width=".344" height="87.692" fill="#4b4b4d"/><rect x="85.047" y="0" width=".344" height="87.692" fill="#4a4a4c"/><rect x="85.391" y="0" width=".344" height="87.692" fill="#49494b"/><rect x="85.735" y="0" width=".344" height="87.692" fill="#48484a"/><rect x="86.079" y="0" width=".344" height="87.692" fill="#474749"/><rect x="86.423" y="0" width=".344" height="87.692" fill="#464648"/><rect x="86.767" y="0" width=".344" height="87.692" fill="#454547"/><rect x="87.11" y="0" width=".344" height="87.692" fill="#444446"/><rect x="87.454" y="0" width=".344" height="87.692" fill="#434345"/><rect x="87.798" y="0" width=".344" height="87.692" fill="#424244"/><rect x="88.142" y="0" width=".344" height="87.692" fill="#414143"/><rect x="88.486" y="0" width=".344" height="87.692" fill="#404042"/><rect x="88.83" y="0" width=".344" height="87.692" fill="#3f3f40"/><rect x="89.174" y="0" width=".344" height="87.692" fill="#3e3e3f"/><rect x="89.518" y="0" width=".344" height="87.692" fill="#3d3d3e"/><rect x="89.862" y="0" width=".344" height="87.692" fill="#3c3b3d"/><rect x="90.205" y="0" width=".344" height="87.692" fill="#3b3a3c"/><rect x="90.549" y="0" width=".344" height="87.692" fill="#3a393b"/><rect x="90.893" y="0" width=".344" height="87.692" fill="#393839"/><rect x="91.237" y="0" width=".344" height="87.692" fill="#383738"/><rect x="91.581" y="0" width=".344" height="87.692" fill="#373537"/><rect x="91.925" y="0" width=".344" height="87.692" fill="#363435"/><rect x="92.269" y="0" width=".344" height="87.692" fill="#343334"/><rect x="92.613" y="0" width=".344" height="87.692" fill="#333233"/><rect x="92.957" y="0" width=".344" height="87.692" fill="#323031"/><rect x="93.301" y="0" width=".344" height="87.692" fill="#312f30"/><rect x="93.644" y="0" width=".344" height="87.692" fill="#302d2f"/><rect x="93.988" y="0" width=".344" height="87.692" fill="#2e2c2d"/><rect x="94.332" y="0" width=".344" height="87.692" fill="#2d2b2c"/><rect x="94.676" y="0" width=".344" height="87.692" fill="#2c292a"/><rect x="95.02" y="0" width=".344" height="87.692" fill="#2b2829"/><rect x="95.364" y="0" width=".344" height="87.692" fill="#292628"/><rect x="95.708" y="0" width=".344" height="87.692" fill="#282526"/><rect x="96.052" y="0" width=".344" height="87.692" fill="#272425"/><rect x="96.396" y="0" width=".344" height="87.692" fill="#262223"/><rect x="96.739" y="0" width=".344" height="87.692" fill="#242122"/><rect x="97.083" y="0" width=".344" height="87.692" fill="#231f20"/></g></g><path d="m6.137,59.27c-7.537,12.334-6.901,20.348,9.76,20.592,18.571-.208,37.021-5.542,53.489-13.855,12.639-6.384,39.54-23.257,42.972-37.166-.211-8.677-13.609-8.718-19.709-9.488-2.823-.308,0,0-2.841-.136,9.576-1.316,23.319-.373,25.377,7.187,2.656,10.333-9.663,18.351-15.428,23.974-13.958,13.085-31.219,22.702-49.697,28.108-11.153,3.015-22.685,5.071-34.3,4.319-17.417-1.295-20.056-10.713-9.604-23.535h-.018Z"/><g><path d="m113.027,24.777c-5.609-6.562-18.882-5.974-23.193-5.561.014.03.026.06.04.09,1.276.079,3.653.21,5.246.388,6.125.83,18.667,2.262,17.09,10.958-3.452,14.317-28.072,30.158-40.786,36.729-16.565,8.556-35.125,14.046-53.806,14.261-12.703-.221-17.611-6.695-15.536-13.785-2.61,8.161,2.445,15.829,15.397,16.814,11.684.774,23.284-1.342,34.504-4.446,18.588-5.564,35.951-15.463,49.992-28.931,5.8-5.788,17.759-18.672,11.053-26.517Z" fill="#fff"/><path d="m7.8,60.447c-2.654,3.334-4.443,6.367-5.323,9.035.967-2.752,2.753-5.787,5.341-9.035h-.019Z" fill="#fff"/></g></g><g><path d="m27.789,104.303v5.061h1.872v.32h-8.111v-.32h1.664v-13.003l-1.851-1.08h6.759c5.116,0,7.467,1.82,7.467,4.301,0,2.961-2.808,4.682-7.799,4.722Zm0-8.702v8.382c1.81-.021,3.016-1.66,3.016-4.381,0-2.621-1.123-4.001-2.787-4.001h-.229Z" fill="#fff"/><path d="m36.816,109.363h1.04v-7.302l-1.186-.979,5.345-1.801v10.082h1.04v.32h-6.239v-.32Zm.811-12.662c0-1.32.832-2.221,2.309-2.221s2.309.9,2.309,2.221c0,1.34-.832,2.24-2.309,2.24s-2.309-.9-2.309-2.24Z" fill="#fff"/><path d="m57.823,109.363v.32h-5.179l-3.099-4.661v4.341h.624v.32h-5.824v-.32h1.04v-11.902l-1.186-.98,5.345-1.8v10.021l1.581-1.1c1.019-.721,1.518-1.2,1.518-2.101,0-.521-.229-1.101-.894-1.421v-.1h4.159c.125.16.167.3.167.5,0,.801-.978,1.381-2.35,1.961l-1.269.54,4.513,6.381h.853Z" fill="#fff"/><path d="m57.887,104.883c.021-2.94,2.204-5.401,5.74-5.401,1.185,0,2.225.16,3.577.64l-.812,5.582h-.021c-1.935-3.521-3.744-5.441-4.991-5.441-.521,0-.832.36-.832,1.08,0,3.221,3.286,6.621,6.218,6.621.271,0,.438-.02.624-.08l.021.021c-.937,1.36-2.454,1.98-4.306,1.98-2.828,0-5.241-1.921-5.22-5.001Z" fill="#fff"/><path d="m68.787,104.622c0-2.86,2.329-5.141,5.719-5.141,3.432,0,5.907,2,5.907,5.141,0,2.921-1.935,5.262-5.886,5.262-2.995,0-5.74-2.041-5.74-5.262Zm8.922,3.521c0-1.681-3.494-7.942-5.324-7.942-.52,0-.832.36-.832.98,0,1.961,3.598,7.981,5.304,7.981.562,0,.853-.34.853-1.02Z" fill="#fff"/><path d="m94.951,109.363v.32h-6.031v-.32h.832v-6.021c0-1.56-.396-2.08-1.248-2.08-.416,0-.832.12-1.248.3v7.802h.832v.32h-6.031v-.32h1.04v-7.302l-1.186-.979,5.345-1.801v2.001c1.353-1.121,2.559-1.9,3.973-1.9,1.768,0,2.683,1.06,2.683,3.101v6.881h1.04Z" fill="#fff"/></g></g></svg>