<?xml version="1.0" encoding="UTF-8"?>
<svg id="pisces" data-name="Layer 1" xmlns="http://www.w3.org/2000/svg" viewBox="0 0 48 48">
  <defs>
    <style>
      .cls-1, .cls-2 {
        fill: #f7f7f7;
      }

      .cls-2 {
        isolation: isolate;
        opacity: .3;
      }

      .cls-3, .cls-4 {
        fill: none;
        stroke: #f7f7f7;
        stroke-miterlimit: 10;
        stroke-width: 2px;
      }

      .cls-4 {
        stroke-linecap: square;
      }

<!-- hover -->

<!-- #pisces:hover {transform: scale(1.1);} -->

#pisces:hover #tail .cls-1 {fill: rgb(170, 255, 227);}
#pisces:hover #body-fill .cls-2 {fill: rgb(170, 255, 227);}


    </style>
  </defs>
  <g id="body-fill">
    <path id="bd" class="cls-2" d="m13,21c-3.714-.001-7.122-2.061-8.849-5.349-.098.779-.148,1.564-.151,2.349,0,11.25,9,19,9,19,0,0,9-7.75,9-19-.003-.785-.053-1.57-.151-2.349-1.727,3.288-5.135,5.348-8.849,5.349Z"/>
    <path id="bd1" class="cls-2" d="m35,27c3.714.001,7.122,2.061,8.849,5.349.098-.779.148-1.564.151-2.349,0-11.25-9-19-9-19,0,0-9,7.75-9,19,.003.785.053,1.57.151,2.349,1.727-3.288,5.135-5.348,8.849-5.349Z"/>
  </g>
  <g id="tail">
    <path class="cls-1" d="m5,46v-2c0-4.418,3.582-8,8-8v2c0,4.418-3.582,8-8,8Z"/>
    <path class="cls-1" d="m13,36c4.418,0,8,3.582,8,8v2c-4.418,0-8-3.582-8-8v-2Z"/>
    <path class="cls-1" d="m35,12c-4.418,0-8-3.582-8-8v-2c4.418,0,8,3.582,8,8v2Z"/>
    <path class="cls-1" d="m43,2v2c0,4.418-3.582,8-8,8v-2c0-4.418,3.582-8,8-8Z"/>
  </g>
  <circle id="eye-l" class="cls-1" cx="11" cy="11" r="2"/>
  <path id="fin-l" class="cls-1" d="m3,18v12h5c-3-5-4-12-4-12h-1Z"/>
  <g id="body-stroke">
    <path class="cls-4" d="m35,11s-9,7.75-9,19c-.215,6.336,3.308,12.208,9,15,5.692-2.792,9.215-8.664,9-15,0-11.25-9-19-9-19Z"/>
    <path class="cls-3" d="m43.849,32.349c-2.564-4.888-8.605-6.771-13.493-4.207-1.797.943-3.264,2.41-4.207,4.207"/>
    <path class="cls-3" d="m4.151,15.651c2.564,4.888,8.605,6.771,13.493,4.207,1.797-.943,3.264-2.41,4.207-4.207"/>
    <path class="cls-4" d="m13,37s9-7.75,9-19c.215-6.336-3.308-12.208-9-15C7.308,5.792,3.785,11.664,4,18c0,11.25,9,19,9,19Z"/>
  </g>
  <circle id="eye-r" class="cls-1" cx="37" cy="37" r="2"/>
  <path id="fin-r" class="cls-1" d="m45,30v-12h-5c3,5,4,12,4,12h1Z"/>
</svg>