<?xml version="1.0" encoding="UTF-8"?>
<svg id="Layer_1" data-name="Layer 1" xmlns="http://www.w3.org/2000/svg" viewBox="0 0 48 48">
  <defs>
    <style>
      .cls-1 {
        fill: #f7f7f7;
        isolation: isolate;
        opacity: .3;
      }

      .cls-2, .cls-3 {
        fill: none;
        stroke: #f7f7f7;
        stroke-miterlimit: 10;
        stroke-width: 2px;
      }

      .cls-3 {
        stroke-linecap: square;
      }
    </style>
  </defs>
  <g id="tail-stroke">
    <path id="tail-stroke-2" data-name="tail-stroke" class="cls-3" d="m37.319,37.056c-.744-1.48-.148-3.283,1.332-4.028.687-.345,2.231-2.241,1.332-4.028l2.7,5.36c.746,1.48.15,3.284-1.33,4.03-1.48.746-3.284.15-4.03-1.33h0l-.004-.004Z"/>
    <path id="tail" class="cls-3" d="m40,39c0,4.418-3.582,8-8,8s-8-3.582-8-8"/>
  </g>
  <path id="tail-fill" class="cls-3" d="m37.319,37.056c-.744-1.48-.148-3.283,1.332-4.028.687-.345,2.231-2.241,1.332-4.028l2.7,5.36c.746,1.48.15,3.284-1.33,4.03-1.48.746-3.284.15-4.03-1.33h0l-.004-.004Z"/>
  <g id="claws-fill">
    <path id="claw-L" class="cls-1" d="m7.923,10.589c-2.084-3.508-2.492-6.222-1.346-9.509-.758-.149-1.542-.092-2.27.165C1.339,2.313.149,6.555,1.648,10.719c1.499,4.164,5.121,6.674,8.089,5.605s4.157-5.31,2.658-9.474c-.285-.793-.66-1.55-1.118-2.257-.561,2.861-1.566,4.687-3.354,5.996Z"/>
    <path id="claw-R" class="cls-1" d="m40.077,10.589c2.084-3.508,2.492-6.222,1.346-9.509.758-.149,1.542-.092,2.27.165,2.968,1.068,4.158,5.31,2.659,9.474-1.499,4.164-5.121,6.674-8.089,5.605s-4.157-5.31-2.663-9.474c.285-.793.66-1.55,1.118-2.257.566,2.861,1.571,4.687,3.359,5.996Z"/>
  </g>
  <path id="trunk" class="cls-3" d="m22.626,38.515c.769.647,1.892.647,2.661,0,2.019-1.787,5.626-5.791,5.626-11.581-.089-4.651-1.056-9.243-2.851-13.534-.364-.856-1.207-1.408-2.137-1.4h-3.937c-.93-.008-1.773.544-2.137,1.4-1.795,4.291-2.762,8.883-2.851,13.534,0,5.79,3.607,9.794,5.626,11.581Z"/>
  <g id="eyes">
    <path class="cls-3" d="m22,12v-2"/>
    <path class="cls-3" d="m26,12v-2"/>
  </g>
  <g id="claws-stroke">
    <path class="cls-3" d="m7.923,10.589c-2.084-3.508-2.492-6.222-1.346-9.509-.758-.149-1.542-.092-2.27.165C1.339,2.313.149,6.555,1.648,10.719c1.499,4.164,5.121,6.674,8.089,5.605s4.157-5.31,2.658-9.474c-.285-.793-.66-1.55-1.118-2.257-.561,2.861-1.566,4.687-3.354,5.996Z"/>
    <path class="cls-3" d="m40.077,10.589c2.084-3.508,2.492-6.222,1.346-9.509.758-.149,1.542-.092,2.27.165,2.968,1.068,4.158,5.31,2.659,9.474-1.499,4.164-5.121,6.674-8.089,5.605s-4.157-5.31-2.663-9.474c.285-.793.66-1.55,1.118-2.257.566,2.861,1.571,4.687,3.359,5.996Z"/>
  </g>
  <path class="cls-2" d="m20.284,12.734c-4.659,4.974-9.306,10.331-17.118.819"/>
  <path class="cls-2" d="m27.716,12.734c4.659,4.974,9.306,10.331,17.118.819"/>
  <path class="cls-2" d="m18.6,33.4l-1.472,1.472c-1.362,1.362-3.21,2.128-5.137,2.128h-1.991"/>
  <path class="cls-2" d="m17.076,28.374l-1.476,1.317c-1.642,1.46-3.856,2.099-6.023,1.738l-2.577-.429"/>
  <path class="cls-2" d="m30.924,28.374l1.48,1.317c1.014.901,2.259,1.501,3.596,1.731"/>
  <path class="cls-2" d="m17.4,22l-2.945,1.84c-2.146,1.342-4.836,1.47-7.1.338l-2.355-1.178"/>
  <path class="cls-2" d="m29.4,33.4l1.472,1.472c.87.87,1.946,1.505,3.128,1.845"/>
  <path class="cls-2" d="m30.6,22l2.945,1.84c2.146,1.342,4.836,1.47,7.1.338l2.355-1.178"/>
</svg>