<?xml version="1.0" encoding="UTF-8"?>
<svg id="Layer_1" data-name="Layer 1" xmlns="http://www.w3.org/2000/svg" viewBox="0 0 48 48">
  <defs>
    <style>
      .cls-1, .cls-2 {
        fill: #f7f7f7;
      }

      .cls-2 {
        isolation: isolate;
        opacity: .3;
      }

      .cls-3, .cls-4 {
        fill: none;
        stroke: #f7f7f7;
        stroke-miterlimit: 10;
        stroke-width: 2px;
      }

      .cls-4 {
        stroke-linecap: square;
      }
    </style>
  </defs>
  <g id="horn-outline">
    <path id="horn-R" class="cls-4" d="m38,16h2c3.866,0,7-3.134,7-7V2h-.08c-.494,3.442-3.442,5.999-6.92,6h-6"/>
    <path id="horn-L" class="cls-4" d="m14,8h-6c-3.478-.001-6.426-2.558-6.92-6h-.08v7c0,3.866,3.134,7,7,7h2"/>
  </g>
  <g id="horn-inside">
    <path id="horn-R-2" data-name="horn-R" class="cls-2" d="m38,16h2c3.866,0,7-3.134,7-7V2h-.08c-.494,3.442-3.442,5.999-6.92,6h-6l4,8Z"/>
    <path id="horn-L-2" data-name="horn-L" class="cls-2" d="m14,8h-6c-3.478-.001-6.426-2.558-6.92-6h-.08v7c0,3.866,3.134,7,7,7h2l4-8Z"/>
  </g>
  <path id="glabella-L" class="cls-3" d="m18,31l2-8"/>
  <path id="eye-L" class="cls-1" d="m20,24h-2.037c-1.203,0-2.302-.68-2.841-1.755l-1.122-2.245h4.72c1.259,0,2.28,1.021,2.28,2.28h0v.72c0,.552-.448,1-1,1Z"/>
  <path id="glabella-R" class="cls-3" d="m30,31l-2-8"/>
  <path id="eye-R" class="cls-1" d="m28,24h2.037c1.203,0,2.302-.68,2.841-1.755l1.122-2.245h-4.72c-1.259,0-2.28,1.021-2.28,2.28h0v.72c0,.552.448,1,1,1Z"/>
  <path id="face" class="cls-3" d="m15,35l-3.118-4.988c-1.183-1.893-1.392-4.237-.563-6.31l.681-1.702-2-6,4-8h20l4,8-2,6,.681,1.7c.829,2.073.62,4.417-.563,6.31l-3.118,4.99"/>
  <path id="chin" class="cls-3" d="m31,41v1c0,1.657-1.343,3-3,3h-8c-1.657,0-3-1.343-3-3v-1"/>
  <g id="snout">
    <path id="snout-2" data-name="snout" class="cls-4" d="m18.459,31h11.082c1.43,0,2.661,1.01,2.941,2.412l.8,4c.325,1.625-.729,3.205-2.354,3.53-.193.039-.39.058-.587.058h-12.682c-1.657,0-3-1.344-2.999-3.001,0-.197.02-.394.058-.587l.8-4c.28-1.402,1.511-2.412,2.941-2.412Z"/>
    <circle class="cls-1" cx="19.5" cy="36.5" r="1.5"/>
    <circle class="cls-1" cx="28.5" cy="36.5" r="1.5"/>
  </g>
  <path id="ear-L" class="cls-3" d="m9,23h-2c-3.314,0-6-2.686-6-6h9"/>
  <path id="ear-R" class="cls-3" d="m39,23h2c3.314,0,6-2.686,6-6h-9"/>
</svg>