<?xml version="1.0" encoding="UTF-8"?>
<svg id="Layer_1" data-name="Layer 1" xmlns="http://www.w3.org/2000/svg" viewBox="0 0 48 48">
  <defs>
    <style>
      .cls-1, .cls-2 {
        fill: #f7f7f7;
      }

      .cls-2 {
        isolation: isolate;
        opacity: .3;
      }

      .cls-3 {
        fill: none;
        stroke: #f7f7f7;
        stroke-miterlimit: 10;
        stroke-width: 2px;
      }
    </style>
  </defs>
  <path id="hair-inside" class="cls-2" d="m17,46c-1.325-2.257-2-4.836-1.952-7.453h5.552c1.536,0,2.838-1.13,3.055-2.65l.65-4.552,4.108-1.645c.527-.211.784-.809.574-1.336-.011-.027-.023-.053-.036-.079l-3.615-7.23c0-6.454-1.077-10.884-4.506-13.289,0,0-.638,5.058-6.811,9.173-3.577,2.253-5.869,6.074-6.173,10.291C.387,21.057-.385,12.826,2.7,7.682,5.785,2.538,11.19.823,17.106,1.337c7.559.658,12.419,8,13.632,18.005,2.262,18.658,14.262,14.658,14.262,14.658,0,0-2,16-28,12Z"/>
  <path id="eye" class="cls-1" d="m18.681,19.924l3.848,1.924c.628-1.206.628-2.642,0-3.848l-3.848,1.924Z"/>
  <path id="hair-outline" class="cls-3" d="m17,46c-1.325-2.257-2-4.836-1.952-7.453h5.552c1.536,0,2.838-1.13,3.055-2.65l.65-4.552,4.108-1.645c.527-.211.784-.809.574-1.336-.011-.027-.023-.053-.036-.079l-3.615-7.23c0-6.454-1.077-10.884-4.506-13.289,0,0-.638,5.058-6.811,9.173-3.577,2.253-5.869,6.074-6.173,10.291C.387,21.057-.385,12.826,2.7,7.682,5.785,2.538,11.19.823,17.106,1.337c7.559.658,12.419,8,13.632,18.005,2.262,18.658,14.262,14.658,14.262,14.658,0,0-2,16-28,12Z"/>
  <path id="hair-back" class="cls-3" d="m32.485,26.672c3,2,6.1,1.828,10.1-.172.153,1.983-.652,3.919-2.166,5.208"/>
  <circle id="dot" class="cls-1" cx="41" cy="17" r="1"/>
  <path id="sparkle" class="cls-1" d="m38.719,8.328c-.688-.684-1.268-1.469-1.719-2.328-.896,1.709-2.291,3.104-4,4,1.709.896,3.104,2.291,4,4,.896-1.709,2.291-3.104,4-4-.839-.441-1.608-1.004-2.281-1.672Z"/>
</svg>